<svg width="448" height="512" xmlns="http://www.w3.org/2000/svg" role="img" class="svg-inline--fa fa-itunes fa-w-14" data-icon="itunes" data-prefix="fab" focusable="false" aria-hidden="true">

 <g>
  <title>Layer 1</title>
  <path id="svg_1" d="m223.60001,80.3c-94.60001,0 -171.10001,76.7 -171.10001,171.2s76.5,171.29999 171.10001,171.29999s171.19998,-76.70001 171.19998,-171.2c0,-94.60001 -76.69998,-171.3 -171.19998,-171.3l0,0.00002zm79.39999,239.99998c-3.19998,13.60001 -13.5,21.20001 -27.29999,23.80002c-12.10001,2.19998 -22.2,2.79999 -31.90001,-5c-11.79999,-10 -12,-26.39999 -1.39999,-36.80002c8.39999,-8 20.3,-9.59998 38.00002,-12.79999c3,-0.5 5.59998,-1.20001 7.69998,-3.70001c3.20001,-3.59998 2.20001,-2 2.20001,-80.79999c0,-5.60001 -2.70001,-7.10001 -8.39999,-6.10001c-4,0.70001 -91.90001,17.10001 -91.90001,17.10001c-5,1.10001 -6.70001,2.60001 -6.70001,8.3c0,116.09999 0.5,110.8 -1.2,118.49998c-2.09999,9 -7.59999,15.80002 -14.89999,19.60001c-8.3,4.60001 -23.40001,6.60001 -31.40001,5.20001c-21.39999,-4 -28.89999,-28.70001 -14.39999,-42.89999c8.39999,-8 20.3,-9.60001 38,-12.80002c3,-0.5 5.60001,-1.19998 7.7,-3.69998c5,-5.70001 0.90001,-127.00002 2.60001,-133.70001c0.39999,-2.60001 1.5,-4.8 3.5,-6.39999c2.09999,-1.70001 5.8,-2.70001 6.7,-2.70001c101.00002,-19 113.3,-21.39999 115.09999,-21.39999c5.70001,-0.39999 9,3 9,8.7c-0.09998,170.60002 0.40002,161.40001 -1,167.60002l0,-0.00003zm42.20001,-288.29999l-242.40001,0c-56.9,0 -102.8,45.9 -102.8,102.8l0,242.40001c0,56.89999 45.9,102.79999 102.8,102.79999l242.40001,0c57,0 102.79999,-45.89999 102.79999,-102.79999l0,-242.40001c0,-56.9 -45.89999,-102.8 -102.79999,-102.8zm-121.60001,412c-106.3,0 -192.5,-86.20001 -192.5,-192.5s86.19999,-192.5 192.5,-192.5s192.5,86.2 192.5,192.5s-86.20001,192.5 -192.5,192.5z" fill="#ffffff"/>
 </g>
</svg>