<svg width="512" height="512" xmlns="http://www.w3.org/2000/svg" role="img" class="svg-inline--fa fa-redo fa-w-16" data-icon="redo" data-prefix="fas" focusable="false" aria-hidden="true">

 <g>
  <title>Layer 1</title>
  <path id="svg_1" d="m500.32999,0l-47.41,0a12,12 0 0 0 -12,12.57l4,82.76a247.42,247.42 0 0 0 -188.91998,-87.33c-136.66,0 -248.1,111.53 -248,248.19c0.1,136.88 111.1,247.81 248,247.81a247.10001,247.10001 0 0 0 166.17999,-63.91a12,12 0 0 0 0.48001,-17.42999l-34,-34a12,12 0 0 0 -16.38,-0.55002a176,176 0 1 1 29.82001,-230.30998l-101.53,-4.87001a12,12 0 0 0 -12.57001,12l0,47.41a12,12 0 0 0 12,12l200.33002,0a12,12 0 0 0 12,-12l0,-200.34a12,12 0 0 0 -12,-12l-0.00003,0z" fill="#ffffff"/>
 </g>
</svg>