<svg width="448" height="512" xmlns="http://www.w3.org/2000/svg" role="img" class="svg-inline--fa fa-pause fa-w-14" data-icon="pause" data-prefix="fas" focusable="false" aria-hidden="true">

 <g>
  <title>Layer 1</title>
  <path id="svg_1" d="m148,481l-96,0c-26.5,0 -48,-21.5 -48,-48l0,-352c0,-26.5 21.5,-48 48,-48l96,0c26.5,0 48,21.5 48,48l0,352c0,26.5 -21.5,48 -48,48zm304,-48l0,-352c0,-26.5 -21.5,-48 -48,-48l-96,0c-26.5,0 -48,21.5 -48,48l0,352c0,26.5 21.5,48 48,48l96,0c26.5,0 48,-21.5 48,-48z" fill="#ffffff"/>
 </g>
</svg>