<svg width="496" height="512" xmlns="http://www.w3.org/2000/svg" role="img" class="svg-inline--fa fa-spotify fa-w-16" data-icon="spotify" data-prefix="fab" focusable="false" aria-hidden="true">

 <g>
  <title>Layer 1</title>
  <path id="svg_1" d="m248,8c-136.9,0 -248,111.1 -248,248s111.1,248 248,248s248,-111.10001 248,-248s-111.10001,-248 -248,-248zm100.70001,364.89999c-4.20001,0 -6.80002,-1.30002 -10.70001,-3.60001c-62.39999,-37.59998 -135,-39.20001 -206.7,-24.5c-3.9,1 -9,2.60001 -11.9,2.60001c-9.7,0 -15.8,-7.70001 -15.8,-15.80002c0,-10.29999 6.1,-15.19998 13.6,-16.79999c81.90001,-18.10001 165.60002,-16.5 237.00002,26.20001c6.09998,3.89999 9.69998,7.39999 9.69998,16.5s-7.10001,15.39999 -15.19998,15.39999zm26.89999,-65.60001c-5.20001,0 -8.70001,-2.29999 -12.30002,-4.19998c-62.5,-37 -155.69998,-51.90001 -238.6,-29.39999c-4.8,1.29999 -7.4,2.59998 -11.9,2.59998c-10.7,0 -19.4,-8.69998 -19.4,-19.39999s5.2,-17.79999 15.5,-20.7c27.80001,-7.8 56.2,-13.59999 97.80001,-13.59999c64.90001,0 127.59999,16.09999 176.99998,45.5c8.10001,4.79999 11.30002,11 11.30002,19.69998c-0.10001,10.80002 -8.5,19.5 -19.40002,19.5l0.00003,0zm31,-76.19998c-5.20001,0 -8.39999,-1.3 -12.89999,-3.90001c-71.20001,-42.5 -198.50002,-52.7 -280.90001,-29.7c-3.60001,1 -8.10001,2.60001 -12.9,2.60001c-13.2,0 -23.3,-10.3 -23.3,-23.60001c0,-13.60001 8.4,-21.3 17.4,-23.89999c35.2,-10.3 74.60001,-15.20001 117.5,-15.20001c73,0 149.5,15.20001 205.39999,47.8c7.80002,4.5 12.89999,10.7 12.89999,22.60001c0,13.59999 -11,23.3 -23.19998,23.3z" fill="#ffffff"/>
 </g>
</svg>